<svg xmlns="http://www.w3.org/2000/svg" width="9.544" height="11.482" viewBox="0 0 9.544 11.482">
  <g id="airplane" transform="translate(-5.996 -1)">
    <path id="Path_1" data-name="Path 1" d="M15.063,8.46H10.234l-.8-6.234A1.421,1.421,0,0,0,8.006,1H6.475a.482.482,0,0,0-.353.154A.46.46,0,0,0,6,1.513L6.866,10A1.42,1.42,0,0,0,8.3,11.258h.954l.367,1.082a15.752,15.752,0,0,0,4.227,0l.367-1.082h.849a.472.472,0,0,0,.477-.466V8.927a.472.472,0,0,0-.477-.466Zm-2.013,3.264H10.4l-.157-.466h2.968Zm1.536-1.4H8.293a.473.473,0,0,1-.477-.42L7,1.933H8.016a.474.474,0,0,1,.477.41L9.275,8.46H9.147a.466.466,0,1,0,0,.933h5.439Z" transform="translate(0 0)" fill="#f61414"/>
    <g id="Group_1" data-name="Group 1" transform="translate(10.535 6.622)">
      <path id="Path_3" data-name="Path 3" d="M17.652,13H15.51l.177,1.431h2.92v-.477A.954.954,0,0,0,17.652,13Z" transform="translate(-15.51 -13)" fill="#f61414"/>
    </g>
  </g>
</svg>
