<svg xmlns="http://www.w3.org/2000/svg" width="19.511" height="18.527" viewBox="0 0 19.511 18.527">
  <g id="lunch-time" transform="translate(-2.4 -3.985)">
    <g id="Group_203" data-name="Group 203" transform="translate(11.645 9.728)">
      <path id="Path_1427" data-name="Path 1427" d="M31.464,23.18a5.928,5.928,0,0,1,3.794,4.973,1.864,1.864,0,0,1,.638,2.391,2.431,2.431,0,0,1,.191,1.307,1.491,1.491,0,0,1-.287.893,8.272,8.272,0,0,1-.064,1.594h3.316a1.283,1.283,0,0,0,1.275-1.18L41,22H31.4Z" transform="translate(-31.4 -22)" fill="#0069bc"/>
    </g>
    <g id="Group_204" data-name="Group 204" transform="translate(10.944 3.985)">
      <path id="Path_1428" data-name="Path 1428" d="M39.21,6.381H35.225V4.755a.339.339,0,0,0-.287-.319l-3.124-.446a.316.316,0,0,0-.351.255.288.288,0,0,0,.287.351l2.869.383V6.349H30.156a.939.939,0,0,0-.956.956V8.772a.3.3,0,0,0,.319.319H39.848a.319.319,0,0,0,.319-.319V7.337A.959.959,0,0,0,39.21,6.381Z" transform="translate(-29.2 -3.985)" fill="#0069bc"/>
    </g>
    <g id="Group_205" data-name="Group 205" transform="translate(3.261 11.449)">
      <path id="Path_1429" data-name="Path 1429" d="M11.444,27.4H10.105A5.02,5.02,0,0,0,5.1,32.086H16.417A4.969,4.969,0,0,0,11.444,27.4ZM7.778,30.875l-.383.319a.294.294,0,0,1-.383-.446l.383-.319a.341.341,0,0,1,.446.032A.3.3,0,0,1,7.778,30.875Zm1.658-1.4-.383.319a.31.31,0,0,1-.446-.032.341.341,0,0,1,.032-.446l.383-.319a.341.341,0,0,1,.446.032A.335.335,0,0,1,9.436,29.472Zm1.53,1.275-.383.319a.3.3,0,0,1-.414-.032.341.341,0,0,1,.032-.446l.383-.319a.341.341,0,0,1,.446.032A.347.347,0,0,1,10.966,30.747ZM12.4,29.185l-.383.319a.272.272,0,0,1-.414-.032.3.3,0,0,1,.032-.414l.383-.319a.341.341,0,0,1,.446.032A.309.309,0,0,1,12.4,29.185Zm2.136,1.4-.383.319a.3.3,0,0,1-.414-.032.341.341,0,0,1,.032-.446l.383-.319a.341.341,0,0,1,.446.032A.393.393,0,0,1,14.537,30.588Z" transform="translate(-5.1 -27.4)" fill="#0069bc"/>
    </g>
    <g id="Group_206" data-name="Group 206" transform="translate(2.687 20.344)">
      <path id="Path_1430" data-name="Path 1430" d="M12.928,55.842c-.319,0-1.466-.542-1.722-.542a.1.1,0,0,0-.064.032,8.641,8.641,0,0,1-1.626.51.761.761,0,0,1-.287-.064A13.008,13.008,0,0,0,7.8,55.3a.1.1,0,0,0-.064.032,6.552,6.552,0,0,1-1.626.51.761.761,0,0,1-.287-.064A10.983,10.983,0,0,0,4.384,55.3a.247.247,0,0,0-.1.032l-.7.255c-.1.032-.191.032-.287.064v1.211a.605.605,0,0,0,.606.606H15.159a.605.605,0,0,0,.606-.606V55.651c-.351,0-.893-.319-1.116-.319C14.49,55.3,13.342,55.842,12.928,55.842Z" transform="translate(-3.3 -55.3)" fill="#0069bc"/>
    </g>
    <g id="Group_207" data-name="Group 207" transform="translate(2.4 16.773)">
      <path id="Path_1431" data-name="Path 1431" d="M14.738,44.1H3.133a.733.733,0,1,0,0,1.466h11.6a.721.721,0,0,0,.733-.733A.742.742,0,0,0,14.738,44.1Z" transform="translate(-2.4 -44.1)" fill="#0069bc"/>
    </g>
    <g id="Group_208" data-name="Group 208" transform="translate(2.4 18.846)">
      <path id="Path_1432" data-name="Path 1432" d="M15.152,50.6H2.687c-.128,0-.191.032-.191.064-.159.191-.064.7-.1.861a.281.281,0,0,0,.383.255l.7-.255a.637.637,0,0,1,.287-.064,8.641,8.641,0,0,1,1.626.51A.1.1,0,0,0,5.46,52c.128,0,.542-.191,1.435-.478a.761.761,0,0,1,.287-.064,8.641,8.641,0,0,1,1.626.51L8.872,52a13.535,13.535,0,0,0,1.435-.478.761.761,0,0,1,.287-.064A14.047,14.047,0,0,1,12.315,52a10.5,10.5,0,0,0,1.435-.478c.383-.128.638,0,1.307.255a.3.3,0,0,0,.383-.287v-.606c.032-.159-.128-.287-.287-.287Z" transform="translate(-2.4 -50.6)" fill="#0069bc"/>
    </g>
  </g>
</svg>
